<?xml version="1.0" encoding="UTF-8" standalone="no"?>
<svg
   xmlns:dc="http://purl.org/dc/elements/1.1/"
   xmlns:cc="http://creativecommons.org/ns#"
   xmlns:rdf="http://www.w3.org/1999/02/22-rdf-syntax-ns#"
   xmlns:svg="http://www.w3.org/2000/svg"
   xmlns="http://www.w3.org/2000/svg"
   xmlns:sodipodi="http://sodipodi.sourceforge.net/DTD/sodipodi-0.dtd"
   xmlns:inkscape="http://www.inkscape.org/namespaces/inkscape"
   width="1240"
   height="1240"
   viewBox="0 0 328.08335 328.08333"
   version="1.1"
   id="svg8"
   inkscape:version="1.0.2 (e86c8708, 2021-01-15)"
   sodipodi:docname="logo-orange.svg">
  <defs
     id="defs2" />
  <sodipodi:namedview
     id="base"
     pagecolor="#ffffff"
     bordercolor="#666666"
     borderopacity="1.0"
     inkscape:pageopacity="0.0"
     inkscape:pageshadow="2"
     inkscape:zoom="0.28727524"
     inkscape:cx="268.28059"
     inkscape:cy="234.52192"
     inkscape:document-units="mm"
     inkscape:current-layer="layer2"
     inkscape:document-rotation="0"
     showgrid="true"
     inkscape:window-width="1920"
     inkscape:window-height="1075"
     inkscape:window-x="-5"
     inkscape:window-y="25"
     inkscape:window-maximized="0"
     fit-margin-top="50"
     fit-margin-left="200"
     fit-margin-right="200"
     fit-margin-bottom="50"
     units="px">
    <inkscape:grid
       type="xygrid"
       id="grid159"
       originx="60.760131"
       originy="2.5487034" />
  </sodipodi:namedview>
  <metadata
     id="metadata5">
    <rdf:RDF>
      <cc:Work
         rdf:about="">
        <dc:format>image/svg+xml</dc:format>
        <dc:type
           rdf:resource="http://purl.org/dc/dcmitype/StillImage" />
        <dc:title></dc:title>
      </cc:Work>
    </rdf:RDF>
  </metadata>
  <g
     inkscape:label="Layer 1"
     inkscape:groupmode="layer"
     id="layer1"
     transform="translate(60.760121,2.5487037)">
    <g
       aria-label="B"
       id="text12"
       style="font-style:normal;font-variant:normal;font-weight:normal;font-stretch:normal;font-size:352.778px;line-height:1.25;font-family:'Songti SC';-inkscape-font-specification:'Songti SC';stroke-width:0.264583"
       transform="rotate(-4.2774349,105.43127,154.21383)">
      <path
         id="path14"
         style="font-style:normal;font-variant:normal;font-weight:normal;font-stretch:normal;font-size:352.778px;font-family:'Songti SC';-inkscape-font-specification:'Songti SC';stroke-width:0.999999"
         d="m 38.148438,126.69922 c -1.216802,-0.0184 -2.453345,0.1317 -3.820313,0.38672 -5.467233,1.01995 -12.8148,4.00049 -19.494141,9.86328 -6.6793395,5.86278 -12.5323376,14.76317 -14.02734338,26.91406 -0.70583244,5.73676 -1.08737523,12.2365 -0.95898437,18.36524 0.004355,0.2079 0.0311286,0.41496 0.05859375,0.62109 0.10418311,0.78191 0.27780132,1.85003 0.42664631,2.77348 0.084018,0.52126 0.17410752,1.04152 0.2632676,1.56192 0.0840631,0.49065 0.17392324,0.99824 0.25615933,1.47127 0.26422066,1.51981 0.32869636,3.09571 0.84103616,4.55075 0.3117154,0.88527 0.8671768,1.66542 1.3359375,2.47852 0.269922,0.4682 0.2120492,0.32624 0.8496093,1.38086 0.6375602,1.05461 1.5208911,2.75922 2.4433594,4.03125 2.4246555,3.34345 5.0108934,6.62851 8.0761724,9.39648 6.252453,5.64602 13.744452,9.74878 20.742187,14.43945 2.965835,1.98804 5.903969,4.03 9.001133,5.80653 5.126547,2.94057 10.857009,5.81448 15.818462,8.00825 8.523968,3.76898 17.462907,6.63712 26.498832,8.92083 2.573644,0.65045 5.227947,0.92605 7.848404,1.35024 1.560088,0.25254 3.119077,0.51735 4.687525,0.71131 3.975039,0.49158 7.961049,0.9426 11.961219,1.14563 6.94551,0.35253 13.92959,0.66459 20.86299,0.12388 2.36459,-0.18441 4.78641,-0.35443 7.02261,-1.14481 1.51891,-0.53686 3.25746,-2.7963 4.19922,-2.39258 0.32716,1.73005 0.80468,6.10781 0.80468,11.9668 v 640.00195 c 0,11.40374 -1.09437,20.48078 -2.40625,26.98047 -0.64709,3.20606 -1.37382,5.81489 -2.01562,7.70703 -0.58249,1.7173 -1.11143,2.70986 -1.15821,2.82813 -2.0861,2.33291 -7.84396,6.39797 -20.4414,9.05664 -0.0339,0.007 -0.0678,0.0139 -0.10156,0.0215 l -82.175785,15.91602 c -5.896034,1.14194 -11.270204,4.323 -15.095703,8.96093 -3.824011,4.63612 -5.936049,10.51921 -5.935547,16.5293 v 23.99806 c 7.83e-4,6.8515 2.747875,13.5173 7.595703,18.3652 4.847836,4.8478 11.515656,7.5969 18.367188,7.5977 h 96.000004 c 46.94919,0 93.44474,0.4425 139.49609,1.3281 0.0176,10e-5 0.0351,10e-5 0.0527,0 0.0278,2e-4 0.0602,2e-4 0.0879,0 0.13932,9e-4 0.28069,0 0.41993,0 h 139.93945 c 0.0124,10e-5 0.0247,10e-5 0.0371,0 0.034,-3e-4 0.13843,-0.015 0.18359,-0.016 50.91319,1.7392 99.16224,-3.8365 144.35352,-17.0137 l 0.0215,-0.01 c 45.81116,-13.1021 86.24241,-31.54069 120.87891,-55.59376 0.0249,-0.0193 0.0497,-0.0388 0.0742,-0.0586 0.0196,-0.0122 0.0392,-0.0246 0.0586,-0.0371 -0.0715,0.0536 0.0743,-0.0566 0.0293,-0.0215 0.0307,-0.0216 0.0572,-0.0448 0.0879,-0.0664 0.0397,-0.0296 -0.0379,0.0358 0.0371,-0.0234 0.037,-0.0296 0.0315,-0.0252 0.0586,-0.0469 35.24461,-24.80917 63.57669,-54.45595 84.1836,-88.66797 0.084,-0.10954 0.16288,-0.22295 0.23632,-0.33985 0.01,-0.0169 0.0196,-0.0338 0.0293,-0.0508 0.0752,-0.12578 0.0743,-0.12721 0.0977,-0.16992 0.001,-0.002 0.005,-0.006 0.006,-0.008 0.0205,-0.0291 0.0407,-0.0584 0.0605,-0.0879 20.94259,-35.90514 31.1391,-75.71754 30.1836,-117.49024 -0.0835,-65.34871 -20.12645,-121.72317 -60.39063,-164.05664 -28.1681,-30.23867 -65.4492,-53.69714 -110.16797,-71.58984 24.31881,-14.6781 45.73888,-30.66083 62.36914,-49.0293 l 0.0293,-0.0371 c 29.32823,-31.43055 45.50977,-69.17232 45.50977,-109.54687 0,-74.63141 -32.75277,-135.81442 -93.83008,-172.86133 -60.06713,-36.43413 -140.31526,-53.09961 -240.13281,-53.09961 -15.75825,0 -47.4226,1.36652 -96.9629,4.01758 -0.0267,-2.4e-4 -0.0534,-2.4e-4 -0.0801,0 -0.0881,0.005 -0.0944,2.4e-4 -0.34766,0.0137 -49.52345,1.77207 -132.86067,19.90783 -198.09961,9.24219 -22.200271,-3.62943 -31.704911,-27.60337 -62.900389,-24.44922 -0.02144,-0.0118 -0.03393,-0.0566 -0.06055,-0.0742 -0.771203,-0.51019 -1.85326,-0.68136 -2.664063,-0.77344 -0.405403,-0.046 -0.913985,-0.3504 -1.214843,-0.0781 -6.78e-4,6.1e-4 -9.7e-5,0.003 -9.7e-5,0.003 z m 347.662112,98.6914 c 62.25615,0 106.47999,12.81559 134.83007,34.6211 0.11479,0.0888 0.18648,0.13087 0.2793,0.19922 0.0382,0.0281 0.0771,0.0649 0.11133,0.0898 0.0649,0.0533 0.13136,0.10476 0.19922,0.1543 28.80174,20.88127 42.61523,49.94904 42.61523,97.64062 0,23.50264 -4.23384,44.14973 -12.47461,62.87891 -0.0915,0.20689 -0.17345,0.41395 -0.25781,0.61914 -0.026,0.0587 -0.0508,0.11796 -0.0742,0.17773 -0.003,0.005 -0.005,0.0104 -0.008,0.0156 -7.47991,18.69985 -18.30832,34.22695 -33.25586,47.67969 -0.11792,0.10571 -0.28038,0.24608 -0.48633,0.4414 -14.17961,13.43331 -31.38737,24.01839 -52.5,31.83789 -20.87391,7.73103 -43.9077,11.72262 -69.64844,11.72266 -41.4647,0 -66.265,-1.10257 -83.37109,-2.28711 V 233.09766 c 23.96612,-4.69771 48.45515,-7.70704 74.04102,-7.70704 z m 1.33593,373.33204 c 85.58177,0 145.47736,16.77267 181.2168,45.0664 35.78185,28.3273 54.1543,70.98734 54.1543,136.97071 0,21.91177 -4.78314,42.65934 -14.77149,63.40429 -0.0853,0.17715 -0.14301,0.30358 -0.16992,0.36133 -0.003,0.005 -0.005,0.009 -0.008,0.0137 -9.20364,19.94121 -22.06996,37.42072 -39.22656,53.01758 -17.27191,15.70171 -37.2408,28.27023 -60.45703,37.87695 -0.0933,0.0375 -0.20084,0.081 -0.23633,0.0957 l 0.15234,-0.0566 c -0.13527,0.052 -0.24409,0.0879 -0.46289,0.19726 l 0.23633,-0.11133 c -21.70912,9.30395 -44.21214,13.90821 -68.42969,13.90821 -48.21354,0 -81.88218,-8.60288 -100.68945,-21.03125 -19.20291,-12.68984 -26.68555,-26.81326 -26.68555,-54.33789 v -271.9571 c 9.27081,-0.7957 18.5669,-1.64071 27.3418,-2.10351 17.41489,-0.87073 33.4376,-1.31445 48.03515,-1.31445 z"
         sodipodi:nodetypes="ssssasaasaasaaaasaaaaaacssssccccsccscscccscscccccccccccccscccccccssscccacacacsssccsccccccssccssssssccscccccsssccsss"
         transform="scale(0.26458333)" />
    </g>
    <path
       id="rect74"
       style="fill:#000000;stroke-width:0.428153"
       d="m 74.083333,269.875 31.627817,1.2554 -20.727612,41.01612 -26.103823,-9.79892 z"
       sodipodi:nodetypes="ccccc" />
    <path
       id="rect84"
       style="fill:#000000;stroke-width:0.43943"
       d="m 129.16968,262.54195 32.22615,-1.97179 20.29434,31.91481 -23.80194,14.29925 z"
       sodipodi:nodetypes="ccccc" />
    <path
       id="path142"
       style="fill:none;stroke:#000000;stroke-width:0.999999px;stroke-linecap:butt;stroke-linejoin:miter;stroke-opacity:1"
       d="m 0.44726562,182.94727 c -0.23025463,3.9082 0.43882802,7.43097 1.87499998,10.625 l -0.9375,-6.65235 z"
       transform="scale(0.26458333)" />
    <circle
       id="path179"
       style="fill:#000000;stroke:#000000;stroke-width:0.264583"
       cx="3.0070393"
       cy="41.394775"
       r="0.0084554981" />
    <path
       style="fill:#000000;stroke-width:0.264583"
       id="path195"
       d="m 0.47809496,41.672173 c 0.29097623,-0.07886 0.58281264,-0.153077 0.87953394,-0.206856 0.2711022,-0.0411 0.5446967,-0.06234 0.8174856,-0.08874 0.2730334,-0.03272 0.5478102,-0.04237 0.822031,-0.0591 0.3196343,-0.02349 0.6393584,-0.04215 0.9596564,-0.0259 0.160718,0.0093 0.3182985,0.03946 0.4753411,0.07268 0,0 0.5380824,-0.373817 0.5380824,-0.373817 v 0 C 4.8108369,40.95574 4.6509453,40.92349 4.4879498,40.91054 4.1668316,40.88816 3.8465418,40.90644 3.52568,40.92837 c -0.2744411,0.01791 -0.5498658,0.02244 -0.8231343,0.0569 -0.2737076,0.02839 -0.5486272,0.0458 -0.8211406,0.08523 -0.2940328,0.05144 -0.5828224,0.123926 -0.8724119,0.195734 0,0 -0.53089824,0.405955 -0.53089824,0.405955 z" />
    <path
       style="fill:#000000;stroke-width:0.264583"
       id="path199"
       d="m 0.13429093,41.692888 c 0.0299692,-0.02188 0.0596411,-0.0442 0.0899077,-0.06568 0.042934,-0.03047 0.0855947,-0.06138 0.12967945,-0.09015 0.0513957,-0.03355 0.21024255,-0.126693 0.15665741,-0.09676 -0.82506303,0.460841 -0.24962791,0.154731 -0.061576,0.06897 0.28296092,-0.123131 0.57898871,-0.210698 0.88166281,-0.268467 0.2526652,-0.04043 0.5063193,-0.07202 0.7615437,-0.09011 0.1905083,-0.01214 0.3814566,-0.01273 0.5722663,-0.01381 0.2550536,-0.0013 0.51011,-0.0013 0.7651657,-0.0019 0.3472111,-0.0013 0.6944252,-0.0013 1.0416376,-7.94e-4 0.4358849,0.0076 0.8542232,0.136805 1.2601588,0.284681 0.1467792,0.05106 0.284503,0.123722 0.4284676,0.181425 0.07507,0.03009 0.1555512,0.04732 0.227602,0.08406 0.2189421,0.111639 0.4418216,0.219449 0.6433896,0.360048 0.3858064,0.269116 0.7428262,0.577308 1.114239,0.865963 L 8.538382,42.664505 v 0 C 7.9115943,42.10083 7.5849437,41.731538 6.9196375,41.325905 6.8518264,41.284562 6.7701995,41.271996 6.6963305,41.242824 6.5504402,41.185211 6.4111533,41.110423 6.2621908,41.061296 5.8504303,40.925499 5.4294845,40.803104 4.9990832,40.750738 4.655303,40.708908 4.306452,40.750529 3.9601378,40.749638 c -0.2529033,-6.51e-4 -0.5058098,-0.0051 -0.758706,-0.0031 -0.1922197,0.0015 -0.3847685,-0.0014 -0.5765632,0.01146 -0.2582117,0.01732 -0.5152744,0.04871 -0.7713292,0.08838 -0.3070375,0.05252 -0.6065772,0.136554 -0.89406634,0.257898 -0.510027,0.226784 -0.99186744,0.512484 -1.44876027,0.832588 l 0.62357814,-0.243991 z"
       sodipodi:nodetypes="cssccccccccsssccssaaaaaaccccc" />
    <path
       style="fill:#000000;stroke-width:0.264583"
       id="path201"
       d="m 4.3005195,41.316703 c 0.252653,-0.06315 0.5119557,-0.09829 0.7697565,-0.133882 0.181919,-0.02734 0.362958,-0.0079 0.5434158,0.01744 0.101813,0.01228 0.2030544,0.024 0.3036056,0.04426 0.1126088,0.02809 0.2224749,0.06647 0.3328504,0.102201 0.3005171,0.06562 0.5986864,0.138673 0.8954529,0.21971 0.4606351,0.120237 0.9229457,0.231931 1.3747982,0.382627 0.3040865,0.115586 0.614494,0.223859 0.8954402,0.390935 0.1734863,0.103169 0.3209653,0.215265 0.4849554,0.333357 0,0 0.5328105,-0.337804 0.5328105,-0.337804 v 0 C 10.298621,42.23477 10.097938,42.080023 9.9522027,41.989536 9.6714605,41.815228 9.3559986,41.708771 9.0497159,41.590213 8.5997731,41.43652 8.1391156,41.321354 7.6796092,41.200186 7.3885961,41.11757 7.0978966,41.034755 6.8016169,40.97265 6.6906536,40.934256 6.5799178,40.896002 6.4680454,40.860413 c -0.1026176,-0.01947 -0.2037435,-0.04049 -0.3085447,-0.0456 -0.1865709,-0.02429 -0.3735752,-0.05166 -0.5619665,-0.0263 -0.2550618,0.03552 -0.5103336,0.07291 -0.763393,0.120134 0,0 -0.5336217,0.408038 -0.5336217,0.408038 z" />
    <path
       style="fill:#000000;stroke-width:0.264583"
       id="path205"
       d="m -6.5609398,58.846423 c -0.077633,-0.07148 -0.1484979,-0.14718 -0.2062342,-0.235495 -0.05708,-0.08958 -0.092478,-0.190236 -0.1333545,-0.287682 -0.043362,-0.102798 -0.086233,-0.205552 -0.1245251,-0.310343 -0.034066,-0.101348 -0.056127,-0.20602 -0.081702,-0.309692 -0.028832,-0.135937 -0.063282,-0.270642 -0.098966,-0.404926 -0.038332,-0.156316 -0.069944,-0.314076 -0.092778,-0.473385 -0.019883,-0.176077 -0.023312,-0.353374 -0.034819,-0.530108 -0.00756,-0.14324 -0.027811,-0.285348 -0.040673,-0.428141 -0.0075,-0.101457 -0.010993,-0.203065 -0.017267,-0.304636 -0.011856,-0.18992 -0.015856,-0.380177 -0.018307,-0.57041 -0.00209,-0.239345 -0.00188,-0.478702 -0.0019,-0.718052 9.261e-4,-0.139838 -0.0053,-0.280213 0.014227,-0.419204 0.012592,-0.08964 0.038495,-0.206094 0.056366,-0.292343 0.095052,-0.357532 0.2056022,-0.71075 0.3223956,-1.061707 0.09637,-0.289666 -0.3132767,-0.425953 -0.4096469,-0.136289 v 0 c -0.1220738,0.367016 -0.2379986,0.736364 -0.3355621,1.110739 -0.024045,0.116948 -0.047667,0.220483 -0.063317,0.338518 -0.020251,0.152736 -0.016031,0.3067 -0.016185,0.460301 9.2e-6,0.241205 -1.969e-4,0.482415 0.00193,0.723612 0.00257,0.197257 0.00679,0.394531 0.019092,0.591463 0.00653,0.105651 0.010028,0.211338 0.018198,0.316859 0.012615,0.139195 0.032126,0.277742 0.039834,0.417341 0.012242,0.187973 0.015481,0.376613 0.038336,0.563748 0.025543,0.175834 0.059987,0.350128 0.1028364,0.522599 0.035058,0.131853 0.068765,0.264137 0.097091,0.397616 0.029408,0.118719 0.054953,0.238594 0.095316,0.35428 0.040624,0.111159 0.085922,0.220244 0.1319482,0.329266 0.051513,0.122616 0.097911,0.248362 0.1720551,0.359817 0.081032,0.120285 0.1764038,0.227307 0.2846438,0.324044 0.2317819,0.19867 0.5127437,-0.12912 0.2809621,-0.32779 z" />
    <path
       style="fill:#ff9955;fill-opacity:0;stroke-width:3.48098"
       d="m 500.63615,1168.4513 c -23.45312,-8.7894 -42.64203,-17.8639 -42.64203,-20.1655 0,-2.3015 9.2404,-23.6082 20.53423,-47.3481 11.29382,-23.7399 20.30086,-43.4202 20.01565,-43.7339 -0.28522,-0.3138 -40.46285,2.3896 -89.28363,6.0075 -109.80559,8.1371 -112.40377,8.1511 -121.46161,0.6546 -8.09184,-6.697 -13.23384,-32.5335 -9.46411,-47.5533 2.89123,-11.5196 12.45299,-16.0174 63.04657,-29.65705 57.31127,-15.45061 57.4362,-15.55038 57.4362,-45.86615 0,-23.47498 -43.27381,-619.88484 -47.07736,-648.83127 l -1.8296,-13.92393 -37.33395,-0.0627 c -34.3441,-0.0577 -39.15443,-0.91846 -60.06594,-10.74818 -44.19606,-20.77489 -58.04242,-42.00048 -47.75608,-73.20697 9.48532,-28.77635 41.34846,-35.86352 74.33269,-16.53347 15.79181,9.25462 16.15317,9.2937 65.1943,7.05101 27.12296,-1.24036 59.49634,-4.27789 71.94085,-6.75008 l 22.62639,-4.49488 0.8287,-13.76601 c 2.3302,-38.70829 15.43755,-73.854937 35.58724,-95.425248 l 10.86768,-11.633892 39.01587,2.248208 c 21.45873,1.236515 45.07229,2.255333 52.4746,2.264039 l 13.45873,0.01583 -12.18755,13.490165 c -17.39909,19.258745 -29.21626,40.812248 -35.40354,64.573098 -2.95419,11.34488 -4.92328,21.07502 -4.37576,21.62255 0.54753,0.54752 15.80627,-0.4881 33.90835,-2.30138 18.10205,-1.81328 45.05275,-4.23648 59.89044,-5.38488 l 26.97761,-2.08801 v -15.23684 c 0,-24.09834 11.93569,-51.069433 29.94727,-67.671944 9.71744,-8.957213 17.79029,-13.756065 21.04202,-12.508261 2.90171,1.113486 25.72581,2.02452 50.72024,2.02452 h 45.4444 l -15.81776,16.910487 c -20.71891,22.150189 -30.7496,42.457898 -32.94833,66.705758 l -1.78832,19.72208 30.89257,9.57805 c 84.41639,26.17276 132.07316,72.46647 151.07198,146.75101 17.41051,68.07446 2.3694,115.15841 -54.74548,171.37272 -18.14326,17.8572 -32.45595,32.85208 -31.80594,33.32195 0.65004,0.4699 9.01407,3.66387 18.58677,7.09772 63.49461,22.77645 119.15242,70.32583 143.22549,122.35983 20.9691,45.32493 29.489,118.14847 18.9008,161.55353 -18.4462,75.61804 -81.70032,147.49549 -164.33713,186.74116 -21.55003,10.23443 -23.30556,12.92093 -15.65318,23.95393 2.61934,3.7764 17.39068,26.7025 32.82528,50.9468 l 28.06288,44.0805 -41.25566,24.6689 c -22.69064,13.5679 -42.55292,24.6617 -44.13847,24.653 -2.17711,-0.011 -54.812,-78.9298 -80.81337,-121.1671 -2.71677,-4.4131 -34.41052,-3.0083 -110.04245,4.8776 l -17.40491,1.8147 -34.80345,67.6883 c -19.14189,37.2286 -36.37275,67.5988 -38.2908,67.4894 -1.91806,-0.1093 -22.67627,-7.3903 -46.12939,-16.1799 z M 732.99172,949.66907 c 46.03971,-13.68489 95.3929,-52.31725 115.70586,-90.57143 19.47422,-36.67462 23.59859,-68.99035 14.97731,-117.3515 -12.23162,-68.61312 -48.75133,-108.2818 -116.75925,-126.82694 -35.3627,-9.64309 -184.76068,-8.08002 -201.24118,2.10547 -3.43211,2.12117 -2.0966,32.56083 6.36769,145.1352 12.28902,163.44291 12.5378,164.52828 41.29712,180.18111 9.28169,5.0517 25.31161,10.69281 35.62207,12.53578 25.35019,4.5313 80.56462,1.76726 104.03038,-5.20769 z M 633.22997,523.13879 c 66.25802,-9.28681 114.22209,-43.50173 134.97717,-96.28533 6.35029,-16.14977 7.90375,-27.09307 8.03101,-56.57323 0.0867,-20.10268 -1.7973,-43.06254 -4.18675,-51.02193 -10.84347,-36.11993 -40.77814,-63.46956 -84.31245,-77.03161 -33.82575,-10.53758 -149.8867,-6.56267 -169.92156,5.81956 -3.10068,1.91632 -1.56858,35.87468 6.30891,139.83432 5.72226,75.51684 10.4143,138.39037 10.42676,139.71896 0.0285,3.02497 66.8065,0.007 98.67691,-4.46074 z"
       id="path852"
       transform="matrix(0.26458333,0,0,0.26458333,-60.760121,-2.5487037)" />
    <path
       style="fill:#ff9955;fill-opacity:0;stroke-width:3.48098"
       d="m 500.63615,1168.4513 c -23.45312,-8.7894 -42.64203,-17.8639 -42.64203,-20.1655 0,-2.3015 9.2404,-23.6082 20.53423,-47.3481 11.29382,-23.7399 20.30086,-43.4202 20.01565,-43.7339 -0.28522,-0.3138 -40.46285,2.3896 -89.28363,6.0075 -109.80559,8.1371 -112.40377,8.1511 -121.46161,0.6546 -8.09184,-6.697 -13.23384,-32.5335 -9.46411,-47.5533 2.89123,-11.5196 12.45299,-16.0174 63.04657,-29.65705 57.31127,-15.45061 57.4362,-15.55038 57.4362,-45.86615 0,-23.47498 -43.27381,-619.88484 -47.07736,-648.83127 l -1.8296,-13.92393 -37.33395,-0.0627 c -34.3441,-0.0577 -39.15443,-0.91846 -60.06594,-10.74818 -44.19606,-20.77489 -58.04242,-42.00048 -47.75608,-73.20697 9.48532,-28.77635 41.34846,-35.86352 74.33269,-16.53347 15.79181,9.25462 16.15317,9.2937 65.1943,7.05101 27.12296,-1.24036 59.49634,-4.27789 71.94085,-6.75008 l 22.62639,-4.49488 0.8287,-13.76601 c 2.3302,-38.70829 15.43755,-73.854937 35.58724,-95.425248 l 10.86768,-11.633892 39.01587,2.248208 c 21.45873,1.236515 45.07229,2.255333 52.4746,2.264039 l 13.45873,0.01583 -12.18755,13.490165 c -17.39909,19.258745 -29.21626,40.812248 -35.40354,64.573098 -2.95419,11.34488 -4.92328,21.07502 -4.37576,21.62255 0.54753,0.54752 15.80627,-0.4881 33.90835,-2.30138 18.10205,-1.81328 45.05275,-4.23648 59.89044,-5.38488 l 26.97761,-2.08801 v -15.23684 c 0,-24.09834 11.93569,-51.069433 29.94727,-67.671944 9.71744,-8.957213 17.79029,-13.756065 21.04202,-12.508261 2.90171,1.113486 25.72581,2.02452 50.72024,2.02452 h 45.4444 l -15.81776,16.910487 c -20.71891,22.150189 -30.7496,42.457898 -32.94833,66.705758 l -1.78832,19.72208 30.89257,9.57805 c 84.41639,26.17276 132.07316,72.46647 151.07198,146.75101 17.41051,68.07446 2.3694,115.15841 -54.74548,171.37272 -18.14326,17.8572 -32.45595,32.85208 -31.80594,33.32195 0.65004,0.4699 9.01407,3.66387 18.58677,7.09772 63.49461,22.77645 119.15242,70.32583 143.22549,122.35983 20.9691,45.32493 29.489,118.14847 18.9008,161.55353 -18.4462,75.61804 -81.70032,147.49549 -164.33713,186.74116 -21.55003,10.23443 -23.30556,12.92093 -15.65318,23.95393 2.61934,3.7764 17.39068,26.7025 32.82528,50.9468 l 28.06288,44.0805 -41.25566,24.6689 c -22.69064,13.5679 -42.55292,24.6617 -44.13847,24.653 -2.17711,-0.011 -54.812,-78.9298 -80.81337,-121.1671 -2.71677,-4.4131 -34.41052,-3.0083 -110.04245,4.8776 l -17.40491,1.8147 -34.80345,67.6883 c -19.14189,37.2286 -36.37275,67.5988 -38.2908,67.4894 -1.91806,-0.1093 -22.67627,-7.3903 -46.12939,-16.1799 z M 732.99172,949.66907 c 46.03971,-13.68489 95.3929,-52.31725 115.70586,-90.57143 19.47422,-36.67462 23.59859,-68.99035 14.97731,-117.3515 -12.23162,-68.61312 -48.75133,-108.2818 -116.75925,-126.82694 -35.3627,-9.64309 -184.76068,-8.08002 -201.24118,2.10547 -3.43211,2.12117 -2.0966,32.56083 6.36769,145.1352 12.28902,163.44291 12.5378,164.52828 41.29712,180.18111 9.28169,5.0517 25.31161,10.69281 35.62207,12.53578 25.35019,4.5313 80.56462,1.76726 104.03038,-5.20769 z M 633.22997,523.13879 c 66.25802,-9.28681 114.22209,-43.50173 134.97717,-96.28533 6.35029,-16.14977 7.90375,-27.09307 8.03101,-56.57323 0.0867,-20.10268 -1.7973,-43.06254 -4.18675,-51.02193 -10.84347,-36.11993 -40.77814,-63.46956 -84.31245,-77.03161 -33.82575,-10.53758 -149.8867,-6.56267 -169.92156,5.81956 -3.10068,1.91632 -1.56858,35.87468 6.30891,139.83432 5.72226,75.51684 10.4143,138.39037 10.42676,139.71896 0.0285,3.02497 66.8065,0.007 98.67691,-4.46074 z"
       id="path854"
       transform="matrix(0.26458333,0,0,0.26458333,-60.760121,-2.5487037)" />
    <path
       style="fill:#000000;fill-opacity:1;stroke-width:3.48098"
       d="m 500.63615,1168.4513 c -23.45312,-8.7894 -42.64203,-17.8639 -42.64203,-20.1655 0,-2.3015 9.2404,-23.6082 20.53423,-47.3481 11.29382,-23.7399 20.30086,-43.4202 20.01565,-43.7339 -0.28522,-0.3138 -40.46285,2.3896 -89.28363,6.0075 -109.80559,8.1371 -112.40377,8.1511 -121.46161,0.6546 -8.09184,-6.697 -13.23384,-32.5335 -9.46411,-47.5533 2.89123,-11.5196 12.45299,-16.0174 63.04657,-29.65705 57.31127,-15.45061 57.4362,-15.55038 57.4362,-45.86615 0,-23.47498 -43.27381,-619.88484 -47.07736,-648.83127 l -1.8296,-13.92393 -37.33395,-0.0627 c -34.3441,-0.0577 -39.15443,-0.91846 -60.06594,-10.74818 -44.19606,-20.77489 -58.04242,-42.00048 -47.75608,-73.20697 9.48532,-28.77635 41.34846,-35.86352 74.33269,-16.53347 15.79181,9.25462 16.15317,9.2937 65.1943,7.05101 27.12296,-1.24036 59.49634,-4.27789 71.94085,-6.75008 l 22.62639,-4.49488 0.8287,-13.76601 c 2.3302,-38.70829 15.43755,-73.854937 35.58724,-95.425248 l 10.86768,-11.633892 39.01587,2.248208 c 21.45873,1.236515 45.07229,2.255333 52.4746,2.264039 l 13.45873,0.01583 -12.18755,13.490165 c -17.39909,19.258745 -29.21626,40.812248 -35.40354,64.573098 -2.95419,11.34488 -4.92328,21.07502 -4.37576,21.62255 0.54753,0.54752 15.80627,-0.4881 33.90835,-2.30138 18.10205,-1.81328 45.05275,-4.23648 59.89044,-5.38488 l 26.97761,-2.08801 v -15.23684 c 0,-24.09834 11.93569,-51.069433 29.94727,-67.671944 9.71744,-8.957213 17.79029,-13.756065 21.04202,-12.508261 2.90171,1.113486 25.72581,2.02452 50.72024,2.02452 h 45.4444 l -15.81776,16.910487 c -20.71891,22.150189 -30.7496,42.457898 -32.94833,66.705758 l -1.78832,19.72208 30.89257,9.57805 c 84.41639,26.17276 132.07316,72.46647 151.07198,146.75101 17.41051,68.07446 2.3694,115.15841 -54.74548,171.37272 -18.14326,17.8572 -32.45595,32.85208 -31.80594,33.32195 0.65004,0.4699 9.01407,3.66387 18.58677,7.09772 63.49461,22.77645 119.15242,70.32583 143.22549,122.35983 20.9691,45.32493 29.489,118.14847 18.9008,161.55353 -18.4462,75.61804 -81.70032,147.49549 -164.33713,186.74116 -21.55003,10.23443 -23.30556,12.92093 -15.65318,23.95393 2.61934,3.7764 17.39068,26.7025 32.82528,50.9468 l 28.06288,44.0805 -41.25566,24.6689 c -22.69064,13.5679 -42.55292,24.6617 -44.13847,24.653 -2.17711,-0.011 -54.812,-78.9298 -80.81337,-121.1671 -2.71677,-4.4131 -34.41052,-3.0083 -110.04245,4.8776 l -17.40491,1.8147 -34.80345,67.6883 c -19.14189,37.2286 -36.37275,67.5988 -38.2908,67.4894 -1.91806,-0.1093 -22.67627,-7.3903 -46.12939,-16.1799 z M 732.99172,949.66907 c 46.03971,-13.68489 95.3929,-52.31725 115.70586,-90.57143 19.47422,-36.67462 23.59859,-68.99035 14.97731,-117.3515 -12.23162,-68.61312 -48.75133,-108.2818 -116.75925,-126.82694 -35.3627,-9.64309 -184.76068,-8.08002 -201.24118,2.10547 -3.43211,2.12117 -2.0966,32.56083 6.36769,145.1352 12.28902,163.44291 12.5378,164.52828 41.29712,180.18111 9.28169,5.0517 25.31161,10.69281 35.62207,12.53578 25.35019,4.5313 80.56462,1.76726 104.03038,-5.20769 z M 633.22997,523.13879 c 66.25802,-9.28681 114.22209,-43.50173 134.97717,-96.28533 6.35029,-16.14977 7.90375,-27.09307 8.03101,-56.57323 0.0867,-20.10268 -1.7973,-43.06254 -4.18675,-51.02193 -10.84347,-36.11993 -40.77814,-63.46956 -84.31245,-77.03161 -33.82575,-10.53758 -149.8867,-6.56267 -169.92156,5.81956 -3.10068,1.91632 -1.56858,35.87468 6.30891,139.83432 5.72226,75.51684 10.4143,138.39037 10.42676,139.71896 0.0285,3.02497 66.8065,0.007 98.67691,-4.46074 z"
       id="path856"
       transform="matrix(0.26458333,0,0,0.26458333,-60.760121,-2.5487037)" />
    <path
       style="fill:#000000;fill-opacity:1;stroke-width:3.48098"
       d="m 500.34914,1168.3453 c -38.01524,-14.2456 -42.74789,-16.9123 -41.34645,-23.2977 0.87043,-3.9659 10.3242,-25.5847 21.0084,-48.0418 l 19.42581,-40.831 -19.85115,1.7483 c -42.88481,3.7767 -161.26247,12.0346 -172.518,12.0346 -17.05066,0 -26.21388,-9.0598 -28.7964,-28.4713 -2.93072,-22.0289 0.45172,-33.1401 11.81581,-38.8147 5.23725,-2.6151 28.31957,-9.8224 51.29406,-16.01615 56.95429,-15.35437 57.43071,-15.72506 57.45933,-44.70423 0.0224,-22.62948 -43.39467,-621.79018 -47.1005,-649.99319 l -1.82959,-13.92393 -37.33395,-0.0627 c -34.3441,-0.0577 -39.15443,-0.91846 -60.06594,-10.74818 -44.19606,-20.77489 -58.04242,-42.00048 -47.75608,-73.20697 9.38116,-28.46037 41.33924,-35.86891 73.47875,-17.03391 13.5489,7.94018 18.58858,8.78726 51.27037,8.6176 19.93447,-0.10349 52.69212,-2.84477 72.7948,-6.09172 l 36.55031,-5.90356 0.8287,-13.92393 c 2.3101,-38.81454 15.4001,-73.97276 35.58724,-95.583158 l 10.86768,-11.633892 39.01587,2.248208 c 21.45873,1.236515 45.07229,2.255333 52.4746,2.264039 l 13.45873,0.01583 -12.18755,13.490165 c -17.39909,19.258745 -29.21626,40.812248 -35.40354,64.573098 -2.95419,11.34488 -4.88532,21.11299 -4.29139,21.70692 0.59393,0.59392 14.28623,-0.39047 30.42734,-2.18753 16.14114,-1.79707 43.05387,-4.2652 59.80609,-5.48474 l 30.4586,-2.21734 v -15.22136 c 0,-24.08377 11.93963,-51.057565 29.94727,-67.656454 9.71744,-8.957213 17.79029,-13.756065 21.04202,-12.508261 2.90171,1.113486 25.72581,2.02452 50.72024,2.02452 h 45.4444 L 791.22726,70.421332 C 770.47009,92.612408 760.4771,112.88539 758.26368,137.29507 l -1.80357,19.89004 20.46491,5.70868 c 90.7318,25.30961 141.69331,72.7232 161.53014,150.28444 17.37104,67.92013 2.41448,114.8612 -54.64387,171.49939 -18.05982,17.92685 -32.36123,32.92174 -31.78088,33.32195 0.58035,0.40021 8.8874,3.5372 18.4601,6.97105 63.49461,22.77645 119.15242,70.32583 143.22549,122.35983 20.9691,45.32493 29.489,118.14847 18.9008,161.55353 -18.4135,75.48368 -83.48825,149.39039 -164.73702,187.09514 -11.00861,5.10868 -20.01565,10.58528 -20.01565,12.17008 0,2.5415 10.999,20.4042 54.44197,88.4158 l 11.4369,17.9049 -41.36983,24.7371 c -22.75341,13.6055 -42.6671,24.7049 -44.25265,24.6654 -1.58552,-0.039 -21.30953,-28.3868 -43.8311,-62.9941 l -40.94829,-62.9222 -19.9689,2.1797 c -10.98288,1.1988 -38.56988,3.634 -61.30445,5.4117 -22.73457,1.7776 -41.67432,3.6894 -42.08835,4.2484 -0.41399,0.559 -16.25089,31.1704 -35.19307,68.0253 -18.94215,36.8549 -36.03057,66.9194 -37.97425,66.81 -1.94367,-0.1093 -22.85199,-7.4381 -46.46297,-16.2859 z m 236.8405,-220.1365 c 28.30961,-8.77124 70.50538,-36.29484 89.77227,-58.55698 34.06019,-39.35525 46.76076,-87.5215 37.51249,-142.26433 -12.30123,-72.81411 -48.61839,-113.50564 -118.27793,-132.5244 -34.74365,-9.48585 -184.25608,-7.89132 -200.4841,2.13816 -3.38164,2.08994 -2.05197,32.47589 6.199,141.66299 5.77725,76.45128 12.03494,144.34014 13.906,150.86413 6.52409,22.74825 29.73215,39.34091 63.50015,45.39963 27.6305,4.95755 80.89263,1.63989 107.87212,-6.7192 z M 632.33226,523.27806 c 66.9639,-9.3464 115.74516,-44.29832 135.80136,-97.30212 14.90494,-39.39021 12.07459,-95.51042 -6.55249,-129.92261 -23.81271,-43.99227 -80.41981,-64.75919 -164.34772,-60.29272 -34.90377,1.85751 -77.31517,8.77749 -81.90091,13.36322 -0.83454,0.83455 3.15346,63.28948 8.86223,138.78873 5.70878,75.49926 10.37991,138.35838 10.3803,139.68697 8.6e-4,2.97746 66.53588,0.0362 97.75723,-4.32147 z"
       id="path858"
       transform="matrix(0.26458333,0,0,0.26458333,-60.760121,-2.5487037)" />
    <path
       style="fill:#ff6600;fill-opacity:1;stroke-width:3.48098"
       d="m 498.89566,1168.3682 c -22.49585,-8.669 -40.92348,-17.5186 -40.95028,-19.6656 -0.0268,-2.1471 8.85018,-23.0923 19.72665,-46.5448 10.87647,-23.4525 19.12223,-43.2406 18.3239,-43.9736 -0.79832,-0.733 -39.82933,1.5426 -86.73556,5.0569 -107.92863,8.0862 -112.41828,8.1093 -121.46161,0.6248 -8.09184,-6.697 -13.23384,-32.5335 -9.46411,-47.5533 2.91349,-11.6083 12.49247,-16.0722 64.65778,-30.13126 25.47765,-6.86648 46.15907,-14.46822 50.10915,-18.4183 6.15339,-6.1534 6.55377,-10.31429 4.70183,-48.86303 -2.30239,-47.92508 -43.28814,-605.65196 -46.07216,-626.94188 l -1.82079,-13.92393 -37.33395,-0.0627 c -34.3441,-0.0577 -39.15443,-0.91846 -60.06594,-10.74818 -31.13315,-14.63451 -47.48995,-29.58646 -50.25221,-45.93614 -3.22895,-19.112 4.4836,-38.86342 19.02897,-48.73218 15.1051,-10.24853 33.16512,-8.73902 59.36812,4.96216 17.45336,9.12611 18.57937,9.24988 63.61369,6.99225 25.2152,-1.26406 56.81092,-4.26767 70.2127,-6.67467 l 24.36688,-4.37636 2.48416,-27.33508 c 2.7346,-30.0909 15.23957,-61.129016 32.92809,-81.729624 l 10.08352,-11.743584 52.69317,2.551922 52.69319,2.551921 -15.95366,19.586766 C 555.7392,99.486478 546.27635,118.75391 541.8798,142.28742 l -3.01302,16.12797 12.64866,-2.03935 c 12.38697,-1.99715 90.25888,-8.71482 102.28393,-8.82358 4.88333,-0.0442 6.09172,-3.13645 6.09172,-15.58893 0,-24.40785 11.85918,-51.295932 29.99945,-68.017025 11.81181,-10.887748 17.73059,-14.067943 23.36804,-12.555793 4.15233,1.113788 26.95297,2.046459 50.66807,2.072601 l 43.11837,0.04753 -15.81776,16.910487 c -20.75717,22.191078 -30.75016,42.46406 -32.96358,66.87374 l -1.80357,19.89004 20.46491,5.70868 c 51.34529,14.32276 95.02872,38.96542 119.70266,67.52657 32.00926,37.05211 51.28621,94.63626 47.67316,142.40928 -3.12634,41.33717 -19.21457,71.16944 -60.27286,111.76336 -18.17901,17.97339 -32.57792,33.00636 -31.99757,33.40657 0.58035,0.40021 8.8874,3.5372 18.4601,6.97105 63.49461,22.77645 119.15242,70.32583 143.22549,122.35983 20.9691,45.32493 29.489,118.14847 18.9008,161.55353 -18.0729,74.08777 -75.84489,141.05769 -159.51458,184.91124 -11.00916,5.77018 -21.33515,11.78288 -22.9467,13.36158 -2.59145,2.5387 5.25868,15.9972 52.15058,89.4082 l 11.4369,17.9049 -41.36983,24.7371 c -22.75341,13.6055 -42.6671,24.7159 -44.25265,24.6899 -1.58552,-0.024 -21.32063,-28.372 -43.85582,-62.9912 l -40.973,-62.9439 -19.94419,2.1768 c -10.96927,1.1973 -38.54516,3.6312 -61.27973,5.4089 -22.73457,1.7776 -41.67689,3.6894 -42.09402,4.2484 -0.41716,0.559 -16.20919,31.1704 -35.09349,68.0253 -23.00428,44.8955 -36.1085,66.8934 -39.70906,66.6589 -2.9557,-0.1925 -23.7797,-7.4428 -46.27555,-16.1119 z M 737.53513,948.06956 c 27.2258,-8.42185 70.74007,-36.8227 89.32862,-58.3029 28.98363,-33.49234 44.61752,-80.94565 40.37142,-122.53865 -8.5841,-84.08636 -46.3898,-132.14571 -119.3908,-151.77197 -41.60801,-11.18631 -187.49385,-9.19028 -202.00457,2.76379 -3.08028,2.53764 -3.83492,10.01141 -2.51563,24.91423 1.03657,11.70905 5.81418,73.76497 10.61689,137.90207 4.80268,64.13709 10.21745,122.17005 12.03282,128.96214 5.88202,22.00739 30.26271,38.72714 66.06935,45.30888 23.39119,4.29961 80.9642,0.34966 105.4919,-7.23759 z M 610.62983,525.12093 c 79.28567,-4.82259 138.59217,-43.31379 159.47309,-103.50154 9.44143,-27.21417 8.47971,-84.60863 -1.86198,-111.12242 -14.45443,-37.05783 -45.82765,-60.24529 -95.35514,-70.47548 -40.4283,-8.35069 -102.57915,-6.09577 -146.22325,5.3052 l -13.13464,3.4311 1.92212,21.60017 c 2.18085,24.5078 19.1257,252.29641 19.1257,257.10577 0,1.72455 9.79026,2.34827 21.75614,1.38606 11.96587,-0.96221 36.39993,-2.64022 54.29796,-3.72886 z"
       id="path860"
       transform="matrix(0.26458333,0,0,0.26458333,-60.760121,-2.5487037)" />
    <path
       style="fill:#ff6600;fill-opacity:1;stroke-width:3.48098"
       d="m 707.75459,163.65863 -47.8635,-10.85231 V 134.618 c 0,-26.91471 11.23037,-53.370767 29.99944,-70.671495 11.81181,-10.887748 17.73059,-14.067943 23.36806,-12.555793 4.15233,1.113788 26.95296,2.046459 50.66806,2.072601 l 43.11838,0.04753 -15.81778,16.910487 c -25.46,27.218802 -31.92314,42.59323 -32.0337,76.20138 -0.052,15.79253 -0.87769,28.52796 -1.83496,28.30096 -0.95727,-0.227 -23.27907,-5.29627 -49.604,-11.26504 z"
       id="path862"
       transform="matrix(0.26458333,0,0,0.26458333,-60.760121,-2.5487037)" />
    <path
       style="fill:#ff6600;fill-opacity:1;stroke-width:3.48098"
       d="m 707.75459,163.65863 -47.8635,-10.85231 V 134.618 c 0,-26.91471 11.23037,-53.370767 29.99944,-70.671495 11.81181,-10.887748 17.73059,-14.067943 23.36806,-12.555793 4.15233,1.113788 26.95296,2.046459 50.66806,2.072601 l 43.11838,0.04753 -15.81778,16.910487 c -25.46,27.218802 -31.92314,42.59323 -32.0337,76.20138 -0.052,15.79253 -0.87769,28.52796 -1.83496,28.30096 -0.95727,-0.227 -23.27907,-5.29627 -49.604,-11.26504 z"
       id="path864"
       transform="matrix(0.26458333,0,0,0.26458333,-60.760121,-2.5487037)" />
    <path
       style="fill:#ff6600;fill-opacity:1;stroke-width:3.48098"
       d="m 489.32296,192.91886 -46.99326,-13.13314 0.0985,-27.54524 c 0.065,-18.16441 2.31042,-33.44273 6.59336,-44.86227 8.07044,-21.518079 27.84629,-49.278607 37.22534,-52.2554 3.87357,-1.229424 28.822,-1.1132 55.44096,0.258276 l 48.39811,2.493593 -13.79463,15.671533 c -27.13586,30.827958 -41.09091,73.878838 -36.66562,113.112198 1.24171,11.00861 1.00504,19.87569 -0.52594,19.70462 -1.53098,-0.17107 -23.93056,-6.22095 -49.77685,-13.44417 z"
       id="path866"
       transform="matrix(0.26458333,0,0,0.26458333,-60.760121,-2.5487037)" />
    <path
       style="fill:#ff6600;fill-opacity:1;stroke-width:3.48098"
       d="m 489.32296,192.91886 -46.99326,-13.13314 0.0985,-27.54524 c 0.065,-18.16441 2.31042,-33.44273 6.59336,-44.86227 8.07044,-21.518079 27.84629,-49.278607 37.22534,-52.2554 3.87357,-1.229424 28.822,-1.1132 55.44096,0.258276 l 48.39811,2.493593 -13.79463,15.671533 c -27.13586,30.827958 -41.09091,73.878838 -36.66562,113.112198 1.24171,11.00861 1.00504,19.87569 -0.52594,19.70462 -1.53098,-0.17107 -23.93056,-6.22095 -49.77685,-13.44417 z"
       id="path868"
       transform="matrix(0.26458333,0,0,0.26458333,-60.760121,-2.5487037)" />
    <path
       style="fill:#ff6600;fill-opacity:1;stroke-width:3.48098"
       d="m 707.75459,163.65863 -47.8635,-10.85231 V 134.618 c 0,-26.91471 11.23037,-53.370767 29.99944,-70.671495 11.81181,-10.887748 17.73059,-14.067943 23.36806,-12.555793 4.15233,1.113788 26.95296,2.046459 50.66806,2.072601 l 43.11838,0.04753 -15.81778,16.910487 c -25.46,27.218802 -31.92314,42.59323 -32.0337,76.20138 -0.052,15.79253 -0.87769,28.52796 -1.83496,28.30096 -0.95727,-0.227 -23.27907,-5.29627 -49.604,-11.26504 z"
       id="path870"
       transform="matrix(0.26458333,0,0,0.26458333,-60.760121,-2.5487037)" />
    <path
       style="fill:#ff6600;fill-opacity:1;stroke-width:3.48098"
       d="m 707.75459,163.65863 -47.8635,-10.85231 V 134.618 c 0,-26.91471 11.23037,-53.370767 29.99944,-70.671495 11.81181,-10.887748 17.73059,-14.067943 23.36806,-12.555793 4.15233,1.113788 26.95296,2.046459 50.66806,2.072601 l 43.11838,0.04753 -15.81778,16.910487 c -25.46,27.218802 -31.92314,42.59323 -32.0337,76.20138 -0.052,15.79253 -0.87769,28.52796 -1.83496,28.30096 -0.95727,-0.227 -23.27907,-5.29627 -49.604,-11.26504 z"
       id="path872"
       transform="matrix(0.26458333,0,0,0.26458333,-60.760121,-2.5487037)" />
    <path
       style="fill:#ff6600;fill-opacity:1;stroke-width:3.48098"
       d="m 707.75459,163.65863 -47.8635,-10.85231 V 134.618 c 0,-26.91471 11.23037,-53.370767 29.99944,-70.671495 11.81181,-10.887748 17.73059,-14.067943 23.36806,-12.555793 4.15233,1.113788 27.48683,2.046459 51.85443,2.072601 l 44.30475,0.04753 -14.96066,13.790256 c -8.22836,7.584642 -19.54355,22.074231 -25.14486,32.199085 -8.94198,16.163406 -10.18596,21.911206 -10.19868,47.122526 -0.008,15.79253 -0.79771,28.52796 -1.75498,28.30096 -0.95727,-0.227 -23.27907,-5.29627 -49.604,-11.26504 z"
       id="path874"
       transform="matrix(0.26458333,0,0,0.26458333,-60.760121,-2.5487037)" />
    <path
       style="fill:#ff6600;fill-opacity:1;stroke-width:3.48098"
       d="m 707.36139,163.61489 -48.2567,-10.89605 1.58339,-24.36688 C 662.58969,99.088177 671.1,80.804558 691.32413,62.533275 c 10.5992,-9.575736 16.55562,-12.586199 22.00822,-11.123274 4.11176,1.103179 27.41307,2.02717 51.78067,2.053312 l 44.30475,0.04753 -14.96066,13.790256 c -8.22836,7.584642 -19.54355,22.074231 -25.14486,32.199085 -8.94198,16.163406 -10.18596,21.911206 -10.19868,47.122526 -0.008,15.79253 -0.79771,28.52796 -1.75498,28.30096 -0.95727,-0.227 -23.45601,-5.31595 -49.9972,-11.30878 z"
       id="path876"
       transform="matrix(0.26458333,0,0,0.26458333,-60.760121,-2.5487037)" />
    <path
       style="fill:#000000;fill-opacity:1;stroke-width:3.48098"
       d="m 707.36139,163.61489 -48.2567,-10.89605 1.58339,-24.36688 C 662.58969,99.088177 671.1,80.804558 691.32413,62.533275 c 10.5992,-9.575736 16.55562,-12.586199 22.00822,-11.123274 4.11176,1.103179 27.41307,2.02717 51.78067,2.053312 l 44.30475,0.04753 -14.96066,13.790256 c -8.22836,7.584642 -19.54355,22.074231 -25.14486,32.199085 -8.94198,16.163406 -10.18596,21.911206 -10.19868,47.122526 -0.008,15.79253 -0.79771,28.52796 -1.75498,28.30096 -0.95727,-0.227 -23.45601,-5.31595 -49.9972,-11.30878 z"
       id="path878"
       transform="matrix(0.26458333,0,0,0.26458333,-60.760121,-2.5487037)" />
  </g>
  <g
     inkscape:groupmode="layer"
     id="layer2"
     inkscape:label="frizura"
     transform="translate(60.760121,2.5487037)">
    <path
       id="rect76"
       style="fill:#000000;stroke-width:0.464027"
       d="m 67.299037,11.436415 30.219778,0.428919 C 84.656659,23.018306 79.931657,35.94952 83.272936,52.916667 L 55.198537,45.216808 c -0.534439,-13.82581 2.182386,-25.754781 12.1005,-33.780393 z"
       sodipodi:nodetypes="ccccc" />
    <path
       id="path93"
       style="fill:#000000;stroke-width:0.418263"
       d="m 125.1294,10.680463 30.21978,0.348488 c -12.86216,9.061565 -17.58717,19.567916 -14.24589,33.353381 l -28.0744,-6.25598 C 112.49446,26.89316 115.21128,17.201111 125.1294,10.680463 Z"
       sodipodi:nodetypes="ccccc" />
    <path
       style="fill:#ff6600;fill-opacity:1;stroke-width:3.48098"
       d="m 489.32296,192.91886 -46.99326,-13.13314 0.0985,-27.54524 c 0.065,-18.16441 2.31042,-33.44273 6.59336,-44.86227 8.07044,-21.518079 27.84629,-49.278607 37.22534,-52.2554 3.87357,-1.229424 28.822,-1.1132 55.44096,0.258276 l 48.39811,2.493593 -13.79463,15.671533 c -27.13586,30.827958 -41.09091,73.878838 -36.66562,113.112198 1.24171,11.00861 1.00504,19.87569 -0.52594,19.70462 -1.53098,-0.17107 -23.93056,-6.22095 -49.77685,-13.44417 z"
       id="path880"
       transform="matrix(0.26458333,0,0,0.26458333,-60.760121,-2.5487037)" />
    <path
       style="fill:#ff6600;fill-opacity:1;stroke-width:3.48098"
       d="m 707.35888,163.72865 -48.25921,-11.00981 1.5859,-24.36688 c 1.90462,-29.263766 10.41652,-47.549287 30.63856,-65.818685 10.5992,-9.575736 16.55562,-12.586199 22.00822,-11.123274 4.11176,1.103179 27.41307,2.02717 51.78067,2.053312 l 44.30475,0.04753 -14.96066,13.790256 c -8.22836,7.584642 -19.54355,22.074231 -25.14486,32.199085 -8.94198,16.163406 -10.18596,21.911206 -10.19868,47.122526 -0.008,15.79253 -0.79771,28.57915 -1.75498,28.41472 -0.95727,-0.16443 -23.45714,-5.25339 -49.99971,-11.30878 z"
       id="path882"
       transform="matrix(0.26458333,0,0,0.26458333,-60.760121,-2.5487037)" />
    <path
       style="fill:#ff6600;fill-opacity:1;stroke-width:3.48098"
       d=""
       id="path884"
       transform="matrix(0.26458333,0,0,0.26458333,-60.760121,-2.5487037)" />
  </g>
</svg>
