<?xml version="1.0" encoding="UTF-8" standalone="no"?>
<svg
   xmlns:dc="http://purl.org/dc/elements/1.1/"
   xmlns:cc="http://creativecommons.org/ns#"
   xmlns:rdf="http://www.w3.org/1999/02/22-rdf-syntax-ns#"
   xmlns:svg="http://www.w3.org/2000/svg"
   xmlns="http://www.w3.org/2000/svg"
   xmlns:sodipodi="http://sodipodi.sourceforge.net/DTD/sodipodi-0.dtd"
   xmlns:inkscape="http://www.inkscape.org/namespaces/inkscape"
   width="1240"
   height="1240"
   viewBox="0 0 328.08335 328.08333"
   version="1.1"
   id="svg8"
   inkscape:version="1.0.2 (e86c8708, 2021-01-15)"
   sodipodi:docname="logo.svg">
  <defs
     id="defs2" />
  <sodipodi:namedview
     id="base"
     pagecolor="#ffffff"
     bordercolor="#666666"
     borderopacity="1.0"
     inkscape:pageopacity="0.0"
     inkscape:pageshadow="2"
     inkscape:zoom="0.28727524"
     inkscape:cx="268.28059"
     inkscape:cy="234.52192"
     inkscape:document-units="mm"
     inkscape:current-layer="layer1"
     inkscape:document-rotation="0"
     showgrid="true"
     inkscape:window-width="1920"
     inkscape:window-height="1075"
     inkscape:window-x="-5"
     inkscape:window-y="47"
     inkscape:window-maximized="0"
     fit-margin-top="50"
     fit-margin-left="200"
     fit-margin-right="200"
     fit-margin-bottom="50"
     units="px">
    <inkscape:grid
       type="xygrid"
       id="grid159"
       originx="60.760131"
       originy="2.5487034" />
  </sodipodi:namedview>
  <metadata
     id="metadata5">
    <rdf:RDF>
      <cc:Work
         rdf:about="">
        <dc:format>image/svg+xml</dc:format>
        <dc:type
           rdf:resource="http://purl.org/dc/dcmitype/StillImage" />
        <dc:title></dc:title>
      </cc:Work>
    </rdf:RDF>
  </metadata>
  <g
     inkscape:label="Layer 1"
     inkscape:groupmode="layer"
     id="layer1"
     transform="translate(60.760121,2.5487037)">
    <g
       aria-label="B"
       id="text12"
       style="font-style:normal;font-variant:normal;font-weight:normal;font-stretch:normal;font-size:352.778px;line-height:1.25;font-family:'Songti SC';-inkscape-font-specification:'Songti SC';stroke-width:0.264583"
       transform="rotate(-4.2774349,105.43127,154.21383)">
      <path
         id="path14"
         style="font-style:normal;font-variant:normal;font-weight:normal;font-stretch:normal;font-size:352.778px;font-family:'Songti SC';-inkscape-font-specification:'Songti SC';stroke-width:0.999999"
         d="m 38.148438,126.69922 c -1.216802,-0.0184 -2.453345,0.1317 -3.820313,0.38672 -5.467233,1.01995 -12.8148,4.00049 -19.494141,9.86328 -6.6793395,5.86278 -12.5323376,14.76317 -14.02734338,26.91406 -0.70583244,5.73676 -1.08737523,12.2365 -0.95898437,18.36524 0.004355,0.2079 0.0311286,0.41496 0.05859375,0.62109 0.10418311,0.78191 0.27780132,1.85003 0.42664631,2.77348 0.084018,0.52126 0.17410752,1.04152 0.2632676,1.56192 0.0840631,0.49065 0.17392324,0.99824 0.25615933,1.47127 0.26422066,1.51981 0.32869636,3.09571 0.84103616,4.55075 0.3117154,0.88527 0.8671768,1.66542 1.3359375,2.47852 0.269922,0.4682 0.2120492,0.32624 0.8496093,1.38086 0.6375602,1.05461 1.5208911,2.75922 2.4433594,4.03125 2.4246555,3.34345 5.0108934,6.62851 8.0761724,9.39648 6.252453,5.64602 13.744452,9.74878 20.742187,14.43945 2.965835,1.98804 5.903969,4.03 9.001133,5.80653 5.126547,2.94057 10.857009,5.81448 15.818462,8.00825 8.523968,3.76898 17.462907,6.63712 26.498832,8.92083 2.573644,0.65045 5.227947,0.92605 7.848404,1.35024 1.560088,0.25254 3.119077,0.51735 4.687525,0.71131 3.975039,0.49158 7.961049,0.9426 11.961219,1.14563 6.94551,0.35253 13.92959,0.66459 20.86299,0.12388 2.36459,-0.18441 4.78641,-0.35443 7.02261,-1.14481 1.51891,-0.53686 3.25746,-2.7963 4.19922,-2.39258 0.32716,1.73005 0.80468,6.10781 0.80468,11.9668 v 640.00195 c 0,11.40374 -1.09437,20.48078 -2.40625,26.98047 -0.64709,3.20606 -1.37382,5.81489 -2.01562,7.70703 -0.58249,1.7173 -1.11143,2.70986 -1.15821,2.82813 -2.0861,2.33291 -7.84396,6.39797 -20.4414,9.05664 -0.0339,0.007 -0.0678,0.0139 -0.10156,0.0215 l -82.175785,15.91602 c -5.896034,1.14194 -11.270204,4.323 -15.095703,8.96093 -3.824011,4.63612 -5.936049,10.51921 -5.935547,16.5293 v 23.99806 c 7.83e-4,6.8515 2.747875,13.5173 7.595703,18.3652 4.847836,4.8478 11.515656,7.5969 18.367188,7.5977 h 96.000004 c 46.94919,0 93.44474,0.4425 139.49609,1.3281 0.0176,10e-5 0.0351,10e-5 0.0527,0 0.0278,2e-4 0.0602,2e-4 0.0879,0 0.13932,9e-4 0.28069,0 0.41993,0 h 139.93945 c 0.0124,10e-5 0.0247,10e-5 0.0371,0 0.034,-3e-4 0.13843,-0.015 0.18359,-0.016 50.91319,1.7392 99.16224,-3.8365 144.35352,-17.0137 l 0.0215,-0.01 c 45.81116,-13.1021 86.24241,-31.54069 120.87891,-55.59376 0.0249,-0.0193 0.0497,-0.0388 0.0742,-0.0586 0.0196,-0.0122 0.0392,-0.0246 0.0586,-0.0371 -0.0715,0.0536 0.0743,-0.0566 0.0293,-0.0215 0.0307,-0.0216 0.0572,-0.0448 0.0879,-0.0664 0.0397,-0.0296 -0.0379,0.0358 0.0371,-0.0234 0.037,-0.0296 0.0315,-0.0252 0.0586,-0.0469 35.24461,-24.80917 63.57669,-54.45595 84.1836,-88.66797 0.084,-0.10954 0.16288,-0.22295 0.23632,-0.33985 0.01,-0.0169 0.0196,-0.0338 0.0293,-0.0508 0.0752,-0.12578 0.0743,-0.12721 0.0977,-0.16992 0.001,-0.002 0.005,-0.006 0.006,-0.008 0.0205,-0.0291 0.0407,-0.0584 0.0605,-0.0879 20.94259,-35.90514 31.1391,-75.71754 30.1836,-117.49024 -0.0835,-65.34871 -20.12645,-121.72317 -60.39063,-164.05664 -28.1681,-30.23867 -65.4492,-53.69714 -110.16797,-71.58984 24.31881,-14.6781 45.73888,-30.66083 62.36914,-49.0293 l 0.0293,-0.0371 c 29.32823,-31.43055 45.50977,-69.17232 45.50977,-109.54687 0,-74.63141 -32.75277,-135.81442 -93.83008,-172.86133 -60.06713,-36.43413 -140.31526,-53.09961 -240.13281,-53.09961 -15.75825,0 -47.4226,1.36652 -96.9629,4.01758 -0.0267,-2.4e-4 -0.0534,-2.4e-4 -0.0801,0 -0.0881,0.005 -0.0944,2.4e-4 -0.34766,0.0137 -49.52345,1.77207 -132.86067,19.90783 -198.09961,9.24219 -22.200271,-3.62943 -31.704911,-27.60337 -62.900389,-24.44922 -0.02144,-0.0118 -0.03393,-0.0566 -0.06055,-0.0742 -0.771203,-0.51019 -1.85326,-0.68136 -2.664063,-0.77344 -0.405403,-0.046 -0.913985,-0.3504 -1.214843,-0.0781 -6.78e-4,6.1e-4 -9.7e-5,0.003 -9.7e-5,0.003 z m 347.662112,98.6914 c 62.25615,0 106.47999,12.81559 134.83007,34.6211 0.11479,0.0888 0.18648,0.13087 0.2793,0.19922 0.0382,0.0281 0.0771,0.0649 0.11133,0.0898 0.0649,0.0533 0.13136,0.10476 0.19922,0.1543 28.80174,20.88127 42.61523,49.94904 42.61523,97.64062 0,23.50264 -4.23384,44.14973 -12.47461,62.87891 -0.0915,0.20689 -0.17345,0.41395 -0.25781,0.61914 -0.026,0.0587 -0.0508,0.11796 -0.0742,0.17773 -0.003,0.005 -0.005,0.0104 -0.008,0.0156 -7.47991,18.69985 -18.30832,34.22695 -33.25586,47.67969 -0.11792,0.10571 -0.28038,0.24608 -0.48633,0.4414 -14.17961,13.43331 -31.38737,24.01839 -52.5,31.83789 -20.87391,7.73103 -43.9077,11.72262 -69.64844,11.72266 -41.4647,0 -66.265,-1.10257 -83.37109,-2.28711 V 233.09766 c 23.96612,-4.69771 48.45515,-7.70704 74.04102,-7.70704 z m 1.33593,373.33204 c 85.58177,0 145.47736,16.77267 181.2168,45.0664 35.78185,28.3273 54.1543,70.98734 54.1543,136.97071 0,21.91177 -4.78314,42.65934 -14.77149,63.40429 -0.0853,0.17715 -0.14301,0.30358 -0.16992,0.36133 -0.003,0.005 -0.005,0.009 -0.008,0.0137 -9.20364,19.94121 -22.06996,37.42072 -39.22656,53.01758 -17.27191,15.70171 -37.2408,28.27023 -60.45703,37.87695 -0.0933,0.0375 -0.20084,0.081 -0.23633,0.0957 l 0.15234,-0.0566 c -0.13527,0.052 -0.24409,0.0879 -0.46289,0.19726 l 0.23633,-0.11133 c -21.70912,9.30395 -44.21214,13.90821 -68.42969,13.90821 -48.21354,0 -81.88218,-8.60288 -100.68945,-21.03125 -19.20291,-12.68984 -26.68555,-26.81326 -26.68555,-54.33789 v -271.9571 c 9.27081,-0.7957 18.5669,-1.64071 27.3418,-2.10351 17.41489,-0.87073 33.4376,-1.31445 48.03515,-1.31445 z"
         sodipodi:nodetypes="ssssasaasaasaaaasaaaaaacssssccccsccscscccscscccccccccccccscccccccssscccacacacsssccsccccccssccssssssccscccccsssccsss"
         transform="scale(0.26458333)" />
    </g>
    <path
       id="rect74"
       style="fill:#000000;stroke-width:0.428153"
       d="m 74.083333,269.875 31.627817,1.2554 -20.727612,41.01612 -26.103823,-9.79892 z"
       sodipodi:nodetypes="ccccc" />
    <path
       id="rect84"
       style="fill:#000000;stroke-width:0.43943"
       d="m 129.16968,262.54195 32.22615,-1.97179 20.29434,31.91481 -23.80194,14.29925 z"
       sodipodi:nodetypes="ccccc" />
    <path
       id="path142"
       style="fill:none;stroke:#000000;stroke-width:0.999999px;stroke-linecap:butt;stroke-linejoin:miter;stroke-opacity:1"
       d="m 0.44726562,182.94727 c -0.23025463,3.9082 0.43882802,7.43097 1.87499998,10.625 l -0.9375,-6.65235 z"
       transform="scale(0.26458333)" />
    <circle
       id="path179"
       style="fill:#000000;stroke:#000000;stroke-width:0.264583"
       cx="3.0070393"
       cy="41.394775"
       r="0.0084554981" />
    <path
       style="fill:#000000;stroke-width:0.264583"
       id="path195"
       d="m 0.47809496,41.672173 c 0.29097623,-0.07886 0.58281264,-0.153077 0.87953394,-0.206856 0.2711022,-0.0411 0.5446967,-0.06234 0.8174856,-0.08874 0.2730334,-0.03272 0.5478102,-0.04237 0.822031,-0.0591 0.3196343,-0.02349 0.6393584,-0.04215 0.9596564,-0.0259 0.160718,0.0093 0.3182985,0.03946 0.4753411,0.07268 0,0 0.5380824,-0.373817 0.5380824,-0.373817 v 0 C 4.8108369,40.95574 4.6509453,40.92349 4.4879498,40.91054 4.1668316,40.88816 3.8465418,40.90644 3.52568,40.92837 c -0.2744411,0.01791 -0.5498658,0.02244 -0.8231343,0.0569 -0.2737076,0.02839 -0.5486272,0.0458 -0.8211406,0.08523 -0.2940328,0.05144 -0.5828224,0.123926 -0.8724119,0.195734 0,0 -0.53089824,0.405955 -0.53089824,0.405955 z" />
    <path
       style="fill:#000000;stroke-width:0.264583"
       id="path199"
       d="m 0.13429093,41.692888 c 0.0299692,-0.02188 0.0596411,-0.0442 0.0899077,-0.06568 0.042934,-0.03047 0.0855947,-0.06138 0.12967945,-0.09015 0.0513957,-0.03355 0.21024255,-0.126693 0.15665741,-0.09676 -0.82506303,0.460841 -0.24962791,0.154731 -0.061576,0.06897 0.28296092,-0.123131 0.57898871,-0.210698 0.88166281,-0.268467 0.2526652,-0.04043 0.5063193,-0.07202 0.7615437,-0.09011 0.1905083,-0.01214 0.3814566,-0.01273 0.5722663,-0.01381 0.2550536,-0.0013 0.51011,-0.0013 0.7651657,-0.0019 0.3472111,-0.0013 0.6944252,-0.0013 1.0416376,-7.94e-4 0.4358849,0.0076 0.8542232,0.136805 1.2601588,0.284681 0.1467792,0.05106 0.284503,0.123722 0.4284676,0.181425 0.07507,0.03009 0.1555512,0.04732 0.227602,0.08406 0.2189421,0.111639 0.4418216,0.219449 0.6433896,0.360048 0.3858064,0.269116 0.7428262,0.577308 1.114239,0.865963 L 8.538382,42.664505 v 0 C 7.9115943,42.10083 7.5849437,41.731538 6.9196375,41.325905 6.8518264,41.284562 6.7701995,41.271996 6.6963305,41.242824 6.5504402,41.185211 6.4111533,41.110423 6.2621908,41.061296 5.8504303,40.925499 5.4294845,40.803104 4.9990832,40.750738 4.655303,40.708908 4.306452,40.750529 3.9601378,40.749638 c -0.2529033,-6.51e-4 -0.5058098,-0.0051 -0.758706,-0.0031 -0.1922197,0.0015 -0.3847685,-0.0014 -0.5765632,0.01146 -0.2582117,0.01732 -0.5152744,0.04871 -0.7713292,0.08838 -0.3070375,0.05252 -0.6065772,0.136554 -0.89406634,0.257898 -0.510027,0.226784 -0.99186744,0.512484 -1.44876027,0.832588 l 0.62357814,-0.243991 z"
       sodipodi:nodetypes="cssccccccccsssccssaaaaaaccccc" />
    <path
       style="fill:#000000;stroke-width:0.264583"
       id="path201"
       d="m 4.3005195,41.316703 c 0.252653,-0.06315 0.5119557,-0.09829 0.7697565,-0.133882 0.181919,-0.02734 0.362958,-0.0079 0.5434158,0.01744 0.101813,0.01228 0.2030544,0.024 0.3036056,0.04426 0.1126088,0.02809 0.2224749,0.06647 0.3328504,0.102201 0.3005171,0.06562 0.5986864,0.138673 0.8954529,0.21971 0.4606351,0.120237 0.9229457,0.231931 1.3747982,0.382627 0.3040865,0.115586 0.614494,0.223859 0.8954402,0.390935 0.1734863,0.103169 0.3209653,0.215265 0.4849554,0.333357 0,0 0.5328105,-0.337804 0.5328105,-0.337804 v 0 C 10.298621,42.23477 10.097938,42.080023 9.9522027,41.989536 9.6714605,41.815228 9.3559986,41.708771 9.0497159,41.590213 8.5997731,41.43652 8.1391156,41.321354 7.6796092,41.200186 7.3885961,41.11757 7.0978966,41.034755 6.8016169,40.97265 6.6906536,40.934256 6.5799178,40.896002 6.4680454,40.860413 c -0.1026176,-0.01947 -0.2037435,-0.04049 -0.3085447,-0.0456 -0.1865709,-0.02429 -0.3735752,-0.05166 -0.5619665,-0.0263 -0.2550618,0.03552 -0.5103336,0.07291 -0.763393,0.120134 0,0 -0.5336217,0.408038 -0.5336217,0.408038 z" />
    <path
       style="fill:#000000;stroke-width:0.264583"
       id="path205"
       d="m -6.5609398,58.846423 c -0.077633,-0.07148 -0.1484979,-0.14718 -0.2062342,-0.235495 -0.05708,-0.08958 -0.092478,-0.190236 -0.1333545,-0.287682 -0.043362,-0.102798 -0.086233,-0.205552 -0.1245251,-0.310343 -0.034066,-0.101348 -0.056127,-0.20602 -0.081702,-0.309692 -0.028832,-0.135937 -0.063282,-0.270642 -0.098966,-0.404926 -0.038332,-0.156316 -0.069944,-0.314076 -0.092778,-0.473385 -0.019883,-0.176077 -0.023312,-0.353374 -0.034819,-0.530108 -0.00756,-0.14324 -0.027811,-0.285348 -0.040673,-0.428141 -0.0075,-0.101457 -0.010993,-0.203065 -0.017267,-0.304636 -0.011856,-0.18992 -0.015856,-0.380177 -0.018307,-0.57041 -0.00209,-0.239345 -0.00188,-0.478702 -0.0019,-0.718052 9.261e-4,-0.139838 -0.0053,-0.280213 0.014227,-0.419204 0.012592,-0.08964 0.038495,-0.206094 0.056366,-0.292343 0.095052,-0.357532 0.2056022,-0.71075 0.3223956,-1.061707 0.09637,-0.289666 -0.3132767,-0.425953 -0.4096469,-0.136289 v 0 c -0.1220738,0.367016 -0.2379986,0.736364 -0.3355621,1.110739 -0.024045,0.116948 -0.047667,0.220483 -0.063317,0.338518 -0.020251,0.152736 -0.016031,0.3067 -0.016185,0.460301 9.2e-6,0.241205 -1.969e-4,0.482415 0.00193,0.723612 0.00257,0.197257 0.00679,0.394531 0.019092,0.591463 0.00653,0.105651 0.010028,0.211338 0.018198,0.316859 0.012615,0.139195 0.032126,0.277742 0.039834,0.417341 0.012242,0.187973 0.015481,0.376613 0.038336,0.563748 0.025543,0.175834 0.059987,0.350128 0.1028364,0.522599 0.035058,0.131853 0.068765,0.264137 0.097091,0.397616 0.029408,0.118719 0.054953,0.238594 0.095316,0.35428 0.040624,0.111159 0.085922,0.220244 0.1319482,0.329266 0.051513,0.122616 0.097911,0.248362 0.1720551,0.359817 0.081032,0.120285 0.1764038,0.227307 0.2846438,0.324044 0.2317819,0.19867 0.5127437,-0.12912 0.2809621,-0.32779 z" />
  </g>
  <g
     inkscape:groupmode="layer"
     id="layer2"
     inkscape:label="frizura"
     transform="translate(60.760121,2.5487037)">
    <path
       id="rect76"
       style="fill:#000000;stroke-width:0.464027"
       d="m 67.299037,11.436415 30.219778,0.428919 C 84.656659,23.018306 79.931657,35.94952 83.272936,52.916667 L 55.198537,45.216808 c -0.534439,-13.82581 2.182386,-25.754781 12.1005,-33.780393 z"
       sodipodi:nodetypes="ccccc" />
    <path
       id="path93"
       style="fill:#000000;stroke-width:0.418263"
       d="m 125.1294,10.680463 30.21978,0.348488 c -12.86216,9.061565 -17.58717,19.567916 -14.24589,33.353381 l -28.0744,-6.25598 C 112.49446,26.89316 115.21128,17.201111 125.1294,10.680463 Z"
       sodipodi:nodetypes="ccccc" />
  </g>
</svg>
